<svg width="16" height="16" viewBox="0 0 16 16" fill="none" xmlns="http://www.w3.org/2000/svg">
<path fill-rule="evenodd" clip-rule="evenodd" d="M8 14C11.3137 14 14 11.3137 14 8C14 4.68629 11.3137 2 8 2C4.68629 2 2 4.68629 2 8C2 11.3137 4.68629 14 8 14ZM7.42119 5H8.57448V9.2H7.42114L7.42119 5ZM7.30005 10.7235C7.30005 10.3369 7.61345 10.0235 8.00005 10.0235C8.38665 10.0235 8.70005 10.3369 8.70005 10.7235C8.70005 11.1101 8.38665 11.4235 8.00005 11.4235C7.61345 11.4235 7.30005 11.1101 7.30005 10.7235Z" fill="#8C92A1"/>
</svg>
