<svg width="16" height="17" viewBox="0 0 16 17" fill="none" xmlns="http://www.w3.org/2000/svg">
<path fill-rule="evenodd" clip-rule="evenodd" d="M8.4935 4.1686L13.9235 13.6121C14.0809 13.8858 13.9875 14.2359 13.7148 14.3939C13.6282 14.4441 13.5299 14.4706 13.4298 14.4706H2.56994C2.25514 14.4706 1.99994 14.2143 1.99994 13.8982C1.99994 13.7977 2.02628 13.6991 2.07631 13.6121L7.50626 4.1686C7.66364 3.89486 8.01225 3.80107 8.28488 3.95911C8.37152 4.00935 8.44351 4.0816 8.4935 4.1686ZM7.5038 7.2706H8.49234V10.8706H7.50377L7.5038 7.2706ZM7.99993 11.5765C7.66856 11.5765 7.39993 11.8451 7.39993 12.1765C7.39993 12.5078 7.66856 12.7765 7.99993 12.7765C8.33131 12.7765 8.59993 12.5078 8.59993 12.1765C8.59993 11.8451 8.33131 11.5765 7.99993 11.5765Z" fill="#FF5449"/>
</svg>
