<svg width="20" height="20" viewBox="0 0 20 20" fill="none" xmlns="http://www.w3.org/2000/svg">
<path d="M9.99959 8.82208L13.5352 5.28652C13.8606 4.96108 14.3882 4.96108 14.7137 5.28652C15.0391 5.61196 15.0391 6.13959 14.7137 6.46502L11.1781 10.0006L14.7137 13.5361C15.0391 13.8615 15.0391 14.3892 14.7137 14.7146C14.3882 15.04 13.8606 15.04 13.5352 14.7146L9.99959 11.1791L6.46406 14.7146C6.13862 15.04 5.61099 15.04 5.28555 14.7146C4.96011 14.3892 4.96011 13.8615 5.28555 13.5361L8.82109 10.0006L5.28554 6.46503C4.96011 6.13959 4.96011 5.61196 5.28555 5.28652C5.61099 4.96108 6.13862 4.96109 6.46406 5.28652L9.99959 8.82208Z" fill="#454A54"/>
</svg>
