<svg width="16" height="16" viewBox="0 0 16 16" fill="none" xmlns="http://www.w3.org/2000/svg">
<path fill-rule="evenodd" clip-rule="evenodd" d="M7.24874 9.44749C7.25573 8.8768 7.34896 8.49001 7.52784 8.19855C7.70688 7.90683 7.9644 7.72304 8.27101 7.54509C8.64175 7.33479 8.9001 7.04405 8.9001 6.64586C8.9001 6.18025 8.52067 5.87158 8.00928 5.87158C7.77959 5.87158 7.5587 5.93724 7.39228 6.07038C7.22797 6.20182 7.10964 6.40449 7.09072 6.69521L7.08463 6.78872H5.89669L5.90016 6.68536C5.91948 6.11013 6.16227 5.6603 6.54704 5.35616C6.92967 5.05372 7.44617 4.90015 8.00928 4.90015C8.62367 4.90015 9.14556 5.0724 9.5158 5.37962C9.88755 5.6881 10.1001 6.12785 10.1001 6.64586C10.1001 7.00909 10.0068 7.31576 9.83399 7.57599C9.66193 7.83515 9.4146 8.04302 9.11409 8.21545C8.84543 8.36815 8.67021 8.51342 8.55848 8.69623C8.44699 8.87863 8.39129 9.11026 8.38451 9.44971V9.60015H7.24873L7.24874 9.44749Z" fill="#5C6270"/>
<circle cx="8" cy="8" r="5" stroke="#5C6270" stroke-width="1.2"/>
<path fill-rule="evenodd" clip-rule="evenodd" d="M8.4 10.4999C8.4 10.8313 8.13137 11.0999 7.8 11.0999C7.46862 11.0999 7.2 10.8313 7.2 10.4999C7.2 10.1685 7.46862 9.8999 7.8 9.8999C8.13137 9.8999 8.4 10.1685 8.4 10.4999Z" fill="#5C6270"/>
</svg>
