<svg width="24" height="24" viewBox="0 0 24 24" fill="none" xmlns="http://www.w3.org/2000/svg">
<path d="M4 3H20C20.5523 3 21 3.44772 21 4V20C21 20.5523 20.5523 21 20 21H4C3.44772 21 3 20.5523 3 20V4C3 3.44772 3.44772 3 4 3ZM10.2955 15.2929C10.686 15.6834 11.3192 15.6834 11.7097 15.2929L17.3666 9.63603C17.7571 9.24551 17.7571 8.61235 17.3666 8.22183C16.9761 7.8313 16.3429 7.8313 15.9524 8.22182L11.0026 13.1716L8.88134 11.0503C8.49081 10.6597 7.8576 10.6597 7.46707 11.0503C7.07657 11.4408 7.07656 12.074 7.46708 12.4645L10.2955 15.2929Z" fill="#DCDCDC"/>
</svg>
