<svg width="20" height="20" viewBox="0 0 20 20" fill="none" xmlns="http://www.w3.org/2000/svg">
<path d="M10 18.3333C5.39763 18.3333 1.66667 14.6023 1.66667 10C1.66667 5.39762 5.39763 1.66666 10 1.66666C14.6023 1.66666 18.3333 5.39762 18.3333 10C18.3333 14.6023 14.6023 18.3333 10 18.3333ZM10 8.8215L8.23223 7.05372C7.9068 6.72828 7.37916 6.72828 7.05373 7.05372C6.72829 7.37915 6.72829 7.90679 7.05373 8.23222L8.8215 10L7.05373 11.7677C6.72829 12.0932 6.72829 12.6208 7.05373 12.9463C7.37916 13.2717 7.90679 13.2717 8.23223 12.9463L10 11.1785L11.7678 12.9462C12.0932 13.2717 12.6208 13.2717 12.9463 12.9462C13.2717 12.6208 13.2717 12.0932 12.9463 11.7677L11.1785 10L12.9463 8.23222C13.2717 7.90679 13.2717 7.37916 12.9463 7.05372C12.6208 6.72828 12.0932 6.72829 11.7677 7.05373L10 8.8215Z" fill="#CACFDB"/>
</svg>
